<?xml version="1.0" encoding="UTF-8"?>
<!DOCTYPE svg PUBLIC "-//W3C//DTD SVG 1.1//EN" "http://www.w3.org/Graphics/SVG/1.1/DTD/svg11.dtd">
<svg xmlns="http://www.w3.org/2000/svg" version="1.1" width="330px" height="330px" style="shape-rendering:geometricPrecision; text-rendering:geometricPrecision; image-rendering:optimizeQuality; fill-rule:evenodd; clip-rule:evenodd" xmlns:xlink="http://www.w3.org/1999/xlink">
<g><path style="opacity:0.996" fill="#32303c" d="M 146.5,-0.5 C 158.5,-0.5 170.5,-0.5 182.5,-0.5C 252.723,10.3678 299.557,49.3678 323,116.5C 325.639,126.541 327.806,136.541 329.5,146.5C 329.5,158.5 329.5,170.5 329.5,182.5C 318.632,252.723 279.632,299.557 212.5,323C 202.459,325.639 192.459,327.806 182.5,329.5C 170.5,329.5 158.5,329.5 146.5,329.5C 76.2765,318.632 29.4432,279.632 6,212.5C 3.36072,202.459 1.19405,192.459 -0.5,182.5C -0.5,170.5 -0.5,158.5 -0.5,146.5C 10.3678,76.2765 49.3678,29.4432 116.5,6C 126.541,3.36072 136.541,1.19405 146.5,-0.5 Z"/></g>
<g><path style="opacity:1" fill="#363338" d="M 143.5,93.5 C 140.379,94.2876 138.712,96.2876 138.5,99.5C 136.312,95.1439 137.646,92.6439 142.5,92C 142.002,90.8419 141.169,90.0085 140,89.5C 138.56,90.1476 137.06,90.4809 135.5,90.5C 135.74,87.4212 135.407,84.4212 134.5,81.5C 136.717,78.4532 139.717,76.9532 143.5,77C 144.047,76.0754 144.713,75.2421 145.5,74.5C 149.389,77.0832 151.055,80.7498 150.5,85.5C 149.5,85.5 148.5,85.5 147.5,85.5C 147.5,83.8333 147.5,82.1667 147.5,80.5C 146.022,80.238 144.689,80.5713 143.5,81.5C 145.166,82.9921 146.166,84.8255 146.5,87C 145.478,89.1695 144.478,91.3362 143.5,93.5 Z"/></g>
<g><path style="opacity:1" fill="#cdc06e" d="M 141.5,84.5 C 142.922,84.7086 144.255,85.2086 145.5,86C 144.07,87.4404 142.403,87.7737 140.5,87C 141.252,86.3292 141.586,85.4959 141.5,84.5 Z"/></g>
<g><path style="opacity:1" fill="#937361" d="M 143.5,93.5 C 144.685,94.8566 145.685,96.3566 146.5,98C 145.767,99.7659 145.433,101.599 145.5,103.5C 144.735,102.34 143.735,101.34 142.5,100.5C 141.712,101.77 140.712,102.77 139.5,103.5C 139.768,101.901 139.434,100.568 138.5,99.5C 138.712,96.2876 140.379,94.2876 143.5,93.5 Z"/></g>
<g><path style="opacity:1" fill="#b76038" d="M 145.5,103.5 C 145.649,104.552 145.483,105.552 145,106.5C 142.791,106.011 140.958,105.011 139.5,103.5C 140.712,102.77 141.712,101.77 142.5,100.5C 143.735,101.34 144.735,102.34 145.5,103.5 Z"/></g>
<g><path style="opacity:1" fill="#805440" d="M 139.5,103.5 C 140.958,105.011 142.791,106.011 145,106.5C 145.483,105.552 145.649,104.552 145.5,103.5C 147.288,105.423 149.288,106.089 151.5,105.5C 152.776,106.614 152.776,107.614 151.5,108.5C 150.5,108.5 149.5,108.5 148.5,108.5C 148.5,109.833 148.5,111.167 148.5,112.5C 144.833,112.5 141.167,112.5 137.5,112.5C 137.5,111.167 137.5,109.833 137.5,108.5C 137.5,107.833 137.5,107.167 137.5,106.5C 138.167,105.5 138.833,104.5 139.5,103.5 Z"/></g>
<g><path style="opacity:1" fill="#b35e3a" d="M 137.5,108.5 C 137.5,109.833 137.5,111.167 137.5,112.5C 141.167,112.5 144.833,112.5 148.5,112.5C 148.5,111.167 148.5,109.833 148.5,108.5C 149.5,108.5 150.5,108.5 151.5,108.5C 151.5,110.167 151.5,111.833 151.5,113.5C 146.13,115.379 140.463,116.045 134.5,115.5C 133.979,112.364 134.979,110.03 137.5,108.5 Z"/></g>
<g><path style="opacity:1" fill="#975c3f" d="M 137.5,106.5 C 137.5,107.167 137.5,107.833 137.5,108.5C 134.979,110.03 133.979,112.364 134.5,115.5C 140.463,116.045 146.13,115.379 151.5,113.5C 150.833,117.5 150.167,121.5 149.5,125.5C 149.167,125.5 148.833,125.5 148.5,125.5C 148.5,124.5 148.5,123.5 148.5,122.5C 144.029,121.911 140.029,122.577 136.5,124.5C 136.167,124.5 135.833,124.5 135.5,124.5C 134.058,123.18 133.392,121.514 133.5,119.5C 133.5,115.167 133.5,110.833 133.5,106.5C 134.833,106.5 136.167,106.5 137.5,106.5 Z"/></g>
<g><path style="opacity:1" fill="#634a44" d="M 137.5,106.5 C 136.167,106.5 134.833,106.5 133.5,106.5C 133.5,110.833 133.5,115.167 133.5,119.5C 132.188,114.985 132.188,110.318 133.5,105.5C 135.297,104.068 136.63,104.401 137.5,106.5 Z"/></g>
<g><path style="opacity:1" fill="#38312f" d="M 75.5,126.5 C 75.1667,126.5 74.8333,126.5 74.5,126.5C 72.028,122.384 68.3613,119.717 63.5,118.5C 53.6589,117.177 43.6589,117.177 33.5,118.5C 33.6236,119.107 33.9569,119.44 34.5,119.5C 34.8283,131.345 34.4949,143.012 33.5,154.5C 33.6665,144.494 33.4998,134.494 33,124.5C 32.4456,122.39 31.6123,120.39 30.5,118.5C 30.8333,117.833 31.1667,117.167 31.5,116.5C 39.4807,115.197 47.4807,115.197 55.5,116.5C 57.4405,116.196 59.1072,115.363 60.5,114C 63.5541,113.179 66.5541,113.345 69.5,114.5C 68.624,115.251 67.624,115.751 66.5,116C 69.3079,118.471 72.1412,120.971 75,123.5C 75.4828,124.448 75.6495,125.448 75.5,126.5 Z"/></g>
<g><path style="opacity:1" fill="#8d7850" d="M 63.5,118.5 C 53.6522,118.173 43.9856,118.506 34.5,119.5C 33.9569,119.44 33.6236,119.107 33.5,118.5C 43.6589,117.177 53.6589,117.177 63.5,118.5 Z"/></g>
<g><path style="opacity:1" fill="#d6bd78" d="M 34.5,119.5 C 43.9856,118.506 53.6522,118.173 63.5,118.5C 68.3613,119.717 72.028,122.384 74.5,126.5C 66.5226,119.738 57.5226,117.904 47.5,121C 52.4357,121.775 57.1024,122.942 61.5,124.5C 55.5,124.5 49.5,124.5 43.5,124.5C 43.5,132.833 43.5,141.167 43.5,149.5C 42.5084,142.352 42.175,135.019 42.5,127.5C 41.5,127.5 40.5,127.5 39.5,127.5C 39.5,125.167 39.5,122.833 39.5,120.5C 38.5,120.5 37.5,120.5 36.5,120.5C 36.8274,130.681 36.494,140.681 35.5,150.5C 35.8276,139.986 35.4942,129.653 34.5,119.5 Z"/></g>
<g><path style="opacity:1" fill="#584730" d="M 103.5,124.5 C 100.167,124.5 96.8333,124.5 93.5,124.5C 93.5979,126.553 92.9313,128.22 91.5,129.5C 91.2606,127.533 91.5939,125.699 92.5,124C 96.3575,123.19 100.024,123.357 103.5,124.5 Z"/></g>
<g><path style="opacity:1" fill="#d56a38" d="M 148.5,125.5 C 147.833,127.5 147.167,129.5 146.5,131.5C 145.732,132.263 145.232,133.263 145,134.5C 144.667,132.833 144.333,131.167 144,129.5C 143.282,128.549 142.449,128.383 141.5,129C 140.577,131.041 140.244,133.208 140.5,135.5C 142.5,135.5 144.5,135.5 146.5,135.5C 147.757,136.623 147.424,137.289 145.5,137.5C 143.473,137.338 141.473,137.505 139.5,138C 138.944,138.383 138.611,138.883 138.5,139.5C 137.876,139.083 137.543,138.416 137.5,137.5C 138.167,136.167 138.833,134.833 139.5,133.5C 138.268,130.789 137.268,128.123 136.5,125.5C 136.5,125.167 136.5,124.833 136.5,124.5C 140.029,122.577 144.029,121.911 148.5,122.5C 148.5,123.5 148.5,124.5 148.5,125.5 Z"/></g>
<g><path style="opacity:1" fill="#3d3430" d="M 103.5,124.5 C 104.36,127.531 106.193,129.865 109,131.5C 110.899,134.876 111.732,138.543 111.5,142.5C 107.758,137.014 105.092,131.014 103.5,124.5 Z"/></g>
<g><path style="opacity:1" fill="#b3a87c" d="M 34.5,119.5 C 35.4942,129.653 35.8276,139.986 35.5,150.5C 35.5,152.167 35.5,153.833 35.5,155.5C 44.8333,155.5 54.1667,155.5 63.5,155.5C 54.0144,156.494 44.3478,156.827 34.5,156.5C 33.6618,156.158 33.3284,155.492 33.5,154.5C 34.4949,143.012 34.8283,131.345 34.5,119.5 Z"/></g>
<g><path style="opacity:1" fill="#63362c" d="M 148.5,125.5 C 148.833,125.5 149.167,125.5 149.5,125.5C 149.5,132.833 149.5,140.167 149.5,147.5C 148.833,147.5 148.167,147.5 147.5,147.5C 148.464,140.254 148.797,132.92 148.5,125.5 Z"/></g>
<g><path style="opacity:1" fill="#a7654b" d="M 136.5,125.5 C 137.268,128.123 138.268,130.789 139.5,133.5C 138.833,134.833 138.167,136.167 137.5,137.5C 137.543,138.416 137.876,139.083 138.5,139.5C 138.842,143.805 141.176,145.305 145.5,144C 148.061,141.844 148.061,139.677 145.5,137.5C 147.424,137.289 147.757,136.623 146.5,135.5C 146.5,134.167 146.5,132.833 146.5,131.5C 147.167,129.5 147.833,127.5 148.5,125.5C 148.797,132.92 148.464,140.254 147.5,147.5C 143.894,147.789 140.394,147.456 137,146.5C 136.5,139.508 136.334,132.508 136.5,125.5 Z"/></g>
<g><path style="opacity:1" fill="#783012" d="M 146.5,131.5 C 146.5,132.833 146.5,134.167 146.5,135.5C 144.5,135.5 142.5,135.5 140.5,135.5C 140.244,133.208 140.577,131.041 141.5,129C 142.449,128.383 143.282,128.549 144,129.5C 144.333,131.167 144.667,132.833 145,134.5C 145.232,133.263 145.732,132.263 146.5,131.5 Z"/></g>
<g><path style="opacity:1" fill="#32180c" d="M 141.5,130.5 C 142.586,130.62 143.253,131.287 143.5,132.5C 143.167,133.167 142.833,133.833 142.5,134.5C 141.571,133.311 141.238,131.978 141.5,130.5 Z"/></g>
<g><path style="opacity:1" fill="#f7e8df" d="M 145.5,137.5 C 148.061,139.677 148.061,141.844 145.5,144C 141.176,145.305 138.842,143.805 138.5,139.5C 138.611,138.883 138.944,138.383 139.5,138C 141.473,137.505 143.473,137.338 145.5,137.5 Z"/></g>
<g><path style="opacity:1" fill="#8e8c8c" d="M 141.5,138.5 C 142.586,138.62 143.253,139.287 143.5,140.5C 143.167,141.167 142.833,141.833 142.5,142.5C 141.571,141.311 141.238,139.978 141.5,138.5 Z"/></g>
<g><path style="opacity:1" fill="#d7c070" d="M 103.5,124.5 C 105.092,131.014 107.758,137.014 111.5,142.5C 113.105,146.966 115.105,151.299 117.5,155.5C 114.02,156.806 110.687,156.806 107.5,155.5C 108.819,153.395 108.486,151.395 106.5,149.5C 100.68,148.184 95.0129,148.184 89.5,149.5C 87.4776,151.419 87.1443,153.586 88.5,156C 85.1667,156.667 81.8333,156.667 78.5,156C 81.1505,152.582 83.1505,148.749 84.5,144.5C 87.6388,139.888 89.9721,134.888 91.5,129.5C 92.9313,128.22 93.5979,126.553 93.5,124.5C 96.8333,124.5 100.167,124.5 103.5,124.5 Z"/></g>
<g><path style="opacity:1" fill="#433a30" d="M 97.5,132.5 C 99.977,135.438 101.977,138.771 103.5,142.5C 100.232,143.487 96.8984,143.82 93.5,143.5C 94.0439,139.534 95.3772,135.867 97.5,132.5 Z"/></g>
<g><path style="opacity:1" fill="#413a2f" d="M 75.5,127.5 C 76.4584,127.953 77.2917,128.619 78,129.5C 78.8306,135.859 78.6639,142.193 77.5,148.5C 76.1193,151.379 74.1193,153.879 71.5,156C 58.967,158.485 46.3003,159.152 33.5,158C 34.056,157.617 34.3893,157.117 34.5,156.5C 44.3478,156.827 54.0144,156.494 63.5,155.5C 70.2842,154.223 74.7842,150.223 77,143.5C 77.9299,137.986 77.4299,132.652 75.5,127.5 Z"/></g>
<g><path style="opacity:1" fill="#6b613b" d="M 89.5,149.5 C 95.0129,148.184 100.68,148.184 106.5,149.5C 108.486,151.395 108.819,153.395 107.5,155.5C 107.608,153.486 106.942,151.82 105.5,150.5C 100.36,149.512 95.0262,149.179 89.5,149.5 Z"/></g>
<g><path style="opacity:1" fill="#4f3c37" d="M 135.5,124.5 C 135.833,124.5 136.167,124.5 136.5,124.5C 136.5,124.833 136.5,125.167 136.5,125.5C 136.334,132.508 136.5,139.508 137,146.5C 140.394,147.456 143.894,147.789 147.5,147.5C 148.167,147.5 148.833,147.5 149.5,147.5C 149.829,160.011 149.495,172.345 148.5,184.5C 148.5,175.167 148.5,165.833 148.5,156.5C 148.579,155.07 148.246,153.736 147.5,152.5C 143.867,151.588 140.2,150.921 136.5,150.5C 135.746,147.977 135.08,145.311 134.5,142.5C 135.457,136.561 135.79,130.561 135.5,124.5 Z"/></g>
<g><path style="opacity:1" fill="#dfcc73" d="M 74.5,126.5 C 74.8333,126.5 75.1667,126.5 75.5,126.5C 75.5,126.833 75.5,127.167 75.5,127.5C 77.4299,132.652 77.9299,137.986 77,143.5C 74.7842,150.223 70.2842,154.223 63.5,155.5C 54.1667,155.5 44.8333,155.5 35.5,155.5C 35.5,153.833 35.5,152.167 35.5,150.5C 36.494,140.681 36.8274,130.681 36.5,120.5C 37.5,120.5 38.5,120.5 39.5,120.5C 39.5,122.833 39.5,125.167 39.5,127.5C 40.5,127.5 41.5,127.5 42.5,127.5C 42.175,135.019 42.5084,142.352 43.5,149.5C 49.5,150.833 55.5,150.833 61.5,149.5C 62.1667,149.5 62.8333,149.5 63.5,149.5C 66.4278,148.409 68.5945,146.409 70,143.5C 70.226,139.113 70.726,134.779 71.5,130.5C 69.378,126.441 66.0447,124.441 61.5,124.5C 57.1024,122.942 52.4357,121.775 47.5,121C 57.5226,117.904 66.5226,119.738 74.5,126.5 Z"/></g>
<g><path style="opacity:1" fill="#322f3a" d="M 61.5,125.5 C 62.391,126.11 63.391,126.443 64.5,126.5C 65.3928,129.68 66.3928,132.846 67.5,136C 66.6328,139.105 66.2994,142.272 66.5,145.5C 65.5,146.833 64.5,148.167 63.5,149.5C 62.8333,149.5 62.1667,149.5 61.5,149.5C 55.8333,149.5 50.1667,149.5 44.5,149.5C 44.5,141.5 44.5,133.5 44.5,125.5C 50.1667,125.5 55.8333,125.5 61.5,125.5 Z"/></g>
<g><path style="opacity:1" fill="#453c2f" d="M 64.5,126.5 C 67.9321,129.008 69.5987,132.508 69.5,137C 69,139.5 68.5,142 68,144.5C 67.6174,145.056 67.1174,145.389 66.5,145.5C 66.2994,142.272 66.6328,139.105 67.5,136C 66.3928,132.846 65.3928,129.68 64.5,126.5 Z"/></g>
<g><path style="opacity:1" fill="#cfbd7e" d="M 61.5,125.5 C 61.5,125.167 61.5,124.833 61.5,124.5C 66.0447,124.441 69.378,126.441 71.5,130.5C 70.726,134.779 70.226,139.113 70,143.5C 68.5945,146.409 66.4278,148.409 63.5,149.5C 64.5,148.167 65.5,146.833 66.5,145.5C 67.1174,145.389 67.6174,145.056 68,144.5C 68.5,142 69,139.5 69.5,137C 69.5987,132.508 67.9321,129.008 64.5,126.5C 63.391,126.443 62.391,126.11 61.5,125.5 Z"/></g>
<g><path style="opacity:1" fill="#5c5137" d="M 61.5,124.5 C 61.5,124.833 61.5,125.167 61.5,125.5C 55.8333,125.5 50.1667,125.5 44.5,125.5C 44.5,133.5 44.5,141.5 44.5,149.5C 50.1667,149.5 55.8333,149.5 61.5,149.5C 55.5,150.833 49.5,150.833 43.5,149.5C 43.5,141.167 43.5,132.833 43.5,124.5C 49.5,124.5 55.5,124.5 61.5,124.5 Z"/></g>
<g><path style="opacity:1" fill="#5a3f38" d="M 136.5,150.5 C 140.2,150.921 143.867,151.588 147.5,152.5C 148.246,153.736 148.579,155.07 148.5,156.5C 147.735,155.34 146.735,154.34 145.5,153.5C 142.342,153.826 139.508,154.826 137,156.5C 136.5,166.161 136.334,175.828 136.5,185.5C 148.482,186.007 148.482,186.84 136.5,188C 135.39,191.049 134.723,194.216 134.5,197.5C 134.167,197.5 133.833,197.5 133.5,197.5C 133.549,194.626 133.216,191.792 132.5,189C 132.68,186.759 133.513,186.259 135,187.5C 135.271,175.146 135.771,162.813 136.5,150.5 Z"/></g>
<g><path style="opacity:1" fill="#3e3731" d="M 84.5,144.5 C 83.1505,148.749 81.1505,152.582 78.5,156C 81.8333,156.667 85.1667,156.667 88.5,156C 87.1443,153.586 87.4776,151.419 89.5,149.5C 95.0262,149.179 100.36,149.512 105.5,150.5C 100.489,150.334 95.4889,150.501 90.5,151C 89.7362,153.069 89.2362,155.236 89,157.5C 88.6121,158.428 87.9454,159.095 87,159.5C 82.8886,158.596 78.722,158.263 74.5,158.5C 74.3505,157.448 74.5172,156.448 75,155.5C 80.3599,153.763 81.8599,150.263 79.5,145C 80,144.5 80.5,144 81,143.5C 82.0113,144.337 83.1779,144.67 84.5,144.5 Z"/></g>
<g><path style="opacity:1" fill="#9c5537" d="M 148.5,156.5 C 148.5,165.833 148.5,175.167 148.5,184.5C 147.122,186.97 147.455,189.304 149.5,191.5C 148.005,191.585 147.005,190.919 146.5,189.5C 143.572,188.516 140.572,188.183 137.5,188.5C 137.371,190.216 137.038,191.883 136.5,193.5C 136.011,194.995 135.345,196.329 134.5,197.5C 134.723,194.216 135.39,191.049 136.5,188C 148.482,186.84 148.482,186.007 136.5,185.5C 136.334,175.828 136.5,166.161 137,156.5C 139.508,154.826 142.342,153.826 145.5,153.5C 146.735,154.34 147.735,155.34 148.5,156.5 Z"/></g>
<g><path style="opacity:1" fill="#b2b0b7" d="M 292.5,162.5 C 296.846,162.334 301.179,162.501 305.5,163C 306.147,164.609 306.98,166.109 308,167.5C 309.167,165.833 310.333,164.167 311.5,162.5C 312.208,165.366 312.875,168.2 313.5,171C 311.193,171.271 310.026,170.105 310,167.5C 309.417,169.002 308.584,170.335 307.5,171.5C 306.813,169.726 305.98,168.059 305,166.5C 304.784,168.384 304.117,170.051 303,171.5C 303.598,168.839 303.432,166.173 302.5,163.5C 301.808,164.025 301.308,164.692 301,165.5C 300.29,164.027 299.124,163.36 297.5,163.5C 296.991,174.147 296.158,174.147 295,163.5C 293.092,166.332 292.259,165.999 292.5,162.5 Z"/></g>
<g><path style="opacity:1" fill="#d6632d" d="M 146.5,178.5 C 146.5,178.167 146.5,177.833 146.5,177.5C 146.5,171.5 146.5,165.5 146.5,159.5C 143.833,159.5 141.167,159.5 138.5,159.5C 138.5,165.5 138.5,171.5 138.5,177.5C 138.5,178.167 138.167,178.5 137.5,178.5C 137.334,171.825 137.5,165.158 138,158.5C 141,157.167 144,157.167 147,158.5C 147.821,165.346 147.654,172.013 146.5,178.5 Z"/></g>
<g><path style="opacity:1" fill="#ea601f" d="M 146.5,177.5 C 143.796,176.286 141.129,176.286 138.5,177.5C 138.5,171.5 138.5,165.5 138.5,159.5C 141.167,159.5 143.833,159.5 146.5,159.5C 146.5,165.5 146.5,171.5 146.5,177.5 Z"/></g>
<g><path style="opacity:1" fill="#a59974" d="M 44.5,175.5 C 44.1667,175.5 43.8333,175.5 43.5,175.5C 40.5,174.167 37.5,174.167 34.5,175.5C 34.1667,175.5 33.8333,175.5 33.5,175.5C 32.9569,175.44 32.6236,175.107 32.5,174.5C 36.8333,173.167 41.1667,173.167 45.5,174.5C 45.3764,175.107 45.0431,175.44 44.5,175.5 Z"/></g>
<g><path style="opacity:1" fill="#9f8f64" d="M 106.5,178.5 C 105.566,177.432 105.232,176.099 105.5,174.5C 101.958,174.187 98.6248,174.521 95.5,175.5C 94.9569,175.44 94.6236,175.107 94.5,174.5C 98.8333,173.167 103.167,173.167 107.5,174.5C 106.754,175.736 106.421,177.07 106.5,178.5 Z"/></g>
<g><path style="opacity:1" fill="#7a7155" d="M 238.5,173.5 C 239.167,173.5 239.5,173.833 239.5,174.5C 239.806,177.385 239.473,180.052 238.5,182.5C 238.5,179.833 238.5,177.167 238.5,174.5C 237.167,174.5 235.833,174.5 234.5,174.5C 234.5,176.167 234.5,177.833 234.5,179.5C 233.539,177.735 233.205,175.735 233.5,173.5C 235.167,173.5 236.833,173.5 238.5,173.5 Z"/></g>
<g><path style="opacity:1" fill="#a23e11" d="M 146.5,177.5 C 146.5,177.833 146.5,178.167 146.5,178.5C 146.5,180.5 146.5,182.5 146.5,184.5C 143.813,184.664 141.146,184.497 138.5,184C 137.594,182.301 137.261,180.467 137.5,178.5C 138.167,178.5 138.5,178.167 138.5,177.5C 141.129,176.286 143.796,176.286 146.5,177.5 Z"/></g>
<g><path style="opacity:1" fill="#dac881" d="M 34.5,175.5 C 37.5,174.167 40.5,174.167 43.5,175.5C 43.5,185.5 43.5,195.5 43.5,205.5C 42.6981,204.048 42.1981,202.382 42,200.5C 41.5003,192.173 41.3336,183.84 41.5,175.5C 39.8333,175.5 38.1667,175.5 36.5,175.5C 36.5,187.167 36.5,198.833 36.5,210.5C 39.7131,210.19 42.7131,210.523 45.5,211.5C 42.1667,211.5 38.8333,211.5 35.5,211.5C 35.8284,199.322 35.4951,187.322 34.5,175.5 Z"/></g>
<g><path style="opacity:1" fill="#bc5a2c" d="M 149.5,191.5 C 149.337,193.857 149.503,196.19 150,198.5C 150.383,199.056 150.883,199.389 151.5,199.5C 151.5,201.167 151.5,202.833 151.5,204.5C 150.351,204.209 149.684,203.376 149.5,202C 148.744,198.875 148.411,195.709 148.5,192.5C 145.254,192.23 142.254,191.897 139.5,191.5C 138.482,192.193 137.482,192.859 136.5,193.5C 137.038,191.883 137.371,190.216 137.5,188.5C 140.572,188.183 143.572,188.516 146.5,189.5C 147.005,190.919 148.005,191.585 149.5,191.5 Z"/></g>
<g><path style="opacity:1" fill="#3f392f" d="M 197.5,173.5 C 197.904,174.756 198.571,175.923 199.5,177C 199.011,178.138 198.678,179.305 198.5,180.5C 193.833,189.167 189.167,197.833 184.5,206.5C 184.5,206.167 184.5,205.833 184.5,205.5C 184.34,203.801 184.506,202.134 185,200.5C 185.333,200.833 185.667,201.167 186,201.5C 186.333,199.833 186.667,198.167 187,196.5C 191.985,191.169 194.652,184.836 195,177.5C 195.333,178.167 195.667,178.833 196,179.5C 196.191,177.292 196.691,175.292 197.5,173.5 Z"/></g>
<g><path style="opacity:1" fill="#3f382c" d="M 214.5,186.5 C 215.376,186.369 216.043,186.702 216.5,187.5C 218.162,191.135 219.495,194.802 220.5,198.5C 217.971,194.776 215.971,190.776 214.5,186.5 Z"/></g>
<g><path style="opacity:1" fill="#403c37" d="M 258.5,180.5 C 263.305,179.513 268.305,179.179 273.5,179.5C 276.644,180.172 279.644,181.172 282.5,182.5C 282.421,183.93 282.754,185.264 283.5,186.5C 281.812,188.67 280.145,190.836 278.5,193C 278.748,194.749 279.748,195.582 281.5,195.5C 283.487,198.859 283.987,202.525 283,206.5C 282.124,208.635 280.624,209.969 278.5,210.5C 284.157,204.942 283.823,199.775 277.5,195C 271.468,194.163 265.468,193.163 259.5,192C 256.833,190 256.833,188 259.5,186C 265.362,185.048 271.028,185.715 276.5,188C 277.126,188.75 277.626,189.584 278,190.5C 279.419,188.664 280.586,186.664 281.5,184.5C 274.305,180.954 266.638,179.621 258.5,180.5 Z"/></g>
<g><path style="opacity:1" fill="#31303d" d="M 259.5,187.5 C 263.846,187.334 268.179,187.501 272.5,188C 276.651,190.741 276.318,192.241 271.5,192.5C 267.618,191.231 263.618,190.565 259.5,190.5C 259.5,189.5 259.5,188.5 259.5,187.5 Z"/></g>
<g><path style="opacity:1" fill="#e2d9ab" d="M 258.5,180.5 C 266.638,179.621 274.305,180.954 281.5,184.5C 280.586,186.664 279.419,188.664 278,190.5C 277.626,189.584 277.126,188.75 276.5,188C 271.028,185.715 265.362,185.048 259.5,186C 256.833,188 256.833,190 259.5,192C 265.468,193.163 271.468,194.163 277.5,195C 283.823,199.775 284.157,204.942 278.5,210.5C 275.978,210.878 273.645,211.711 271.5,213C 267.514,213.499 263.514,213.666 259.5,213.5C 256.417,211.975 253.084,210.975 249.5,210.5C 250.436,207.37 251.77,204.37 253.5,201.5C 254.514,205.014 256.848,206.848 260.5,207C 264.5,207.667 268.5,207.667 272.5,207C 274.527,205.604 274.86,203.938 273.5,202C 268.018,199.879 262.351,198.546 256.5,198C 251.437,195.848 249.604,192.014 251,186.5C 253.086,183.906 255.586,181.906 258.5,180.5 Z"/></g>
<g><path style="opacity:1" fill="#7a432a" d="M 149.5,191.5 C 151.04,193.838 151.706,196.505 151.5,199.5C 150.883,199.389 150.383,199.056 150,198.5C 149.503,196.19 149.337,193.857 149.5,191.5 Z"/></g>
<g><path style="opacity:1" fill="#e6d58a" d="M 204.5,185.5 C 203.257,182.894 201.924,182.894 200.5,185.5C 197.551,189.345 196.218,193.678 196.5,198.5C 200.833,198.5 205.167,198.5 209.5,198.5C 209.5,196.5 209.5,194.5 209.5,192.5C 211.262,192.643 212.929,192.309 214.5,191.5C 215.273,193.813 215.94,196.146 216.5,198.5C 215.933,200.982 215.266,203.316 214.5,205.5C 213.5,205.167 212.833,204.5 212.5,203.5C 209.518,202.835 206.352,202.502 203,202.5C 199.424,202.515 196.258,203.182 193.5,204.5C 191.95,206.933 191.616,209.433 192.5,212C 189.183,212.498 185.85,212.665 182.5,212.5C 183.167,210.5 183.833,208.5 184.5,206.5C 189.167,197.833 193.833,189.167 198.5,180.5C 200.28,179.01 200.946,177.01 200.5,174.5C 202.833,174.5 205.167,174.5 207.5,174.5C 207.756,176.792 207.423,178.959 206.5,181C 208.241,182.62 210.075,184.12 212,185.5C 212.49,186.793 212.657,188.127 212.5,189.5C 210.876,189.36 209.71,190.027 209,191.5C 207.681,189.75 207.181,187.75 207.5,185.5C 206.5,185.5 205.5,185.5 204.5,185.5 Z"/></g>
<g><path style="opacity:1" fill="#473e2d" d="M 86.5,195.5 C 85.2895,200.251 83.2895,204.584 80.5,208.5C 81.3572,203.575 83.3572,199.242 86.5,195.5 Z"/></g>
<g><path style="opacity:1" fill="#e5d594" d="M 197.5,173.5 C 201.884,173.174 206.217,173.508 210.5,174.5C 209.515,176.098 209.349,177.765 210,179.5C 211.049,182.187 212.549,184.52 214.5,186.5C 215.971,190.776 217.971,194.776 220.5,198.5C 220.893,200.284 221.559,201.95 222.5,203.5C 223.925,206.688 225.592,209.688 227.5,212.5C 223.154,212.666 218.821,212.499 214.5,212C 215.333,209.919 215.333,207.752 214.5,205.5C 215.266,203.316 215.933,200.982 216.5,198.5C 215.94,196.146 215.273,193.813 214.5,191.5C 212.929,192.309 211.262,192.643 209.5,192.5C 209.5,194.5 209.5,196.5 209.5,198.5C 205.167,198.5 200.833,198.5 196.5,198.5C 196.218,193.678 197.551,189.345 200.5,185.5C 201.924,182.894 203.257,182.894 204.5,185.5C 205.5,185.5 206.5,185.5 207.5,185.5C 207.181,187.75 207.681,189.75 209,191.5C 209.71,190.027 210.876,189.36 212.5,189.5C 212.657,188.127 212.49,186.793 212,185.5C 210.075,184.12 208.241,182.62 206.5,181C 207.423,178.959 207.756,176.792 207.5,174.5C 205.167,174.5 202.833,174.5 200.5,174.5C 200.946,177.01 200.28,179.01 198.5,180.5C 198.678,179.305 199.011,178.138 199.5,177C 198.571,175.923 197.904,174.756 197.5,173.5 Z"/></g>
<g><path style="opacity:1" fill="#3f3732" d="M 204.5,185.5 C 206.407,189.313 207.74,193.313 208.5,197.5C 204.833,197.5 201.167,197.5 197.5,197.5C 198.858,193.777 200.525,190.111 202.5,186.5C 202.957,185.702 203.624,185.369 204.5,185.5 Z"/></g>
<g><path style="opacity:1" fill="#373437" d="M 273.5,179.5 C 268.305,179.179 263.305,179.513 258.5,180.5C 255.586,181.906 253.086,183.906 251,186.5C 249.604,192.014 251.437,195.848 256.5,198C 262.351,198.546 268.018,199.879 273.5,202C 274.86,203.938 274.527,205.604 272.5,207C 268.5,207.667 264.5,207.667 260.5,207C 256.848,206.848 254.514,205.014 253.5,201.5C 251.77,204.37 250.436,207.37 249.5,210.5C 253.084,210.975 256.417,211.975 259.5,213.5C 254.823,213.165 250.156,212.665 245.5,212C 246.416,211.626 247.25,211.126 248,210.5C 248.063,206.575 249.229,203.075 251.5,200C 249.235,195.806 248.235,191.306 248.5,186.5C 252.596,183.742 253.596,180.409 251.5,176.5C 251.833,175.5 252.167,174.5 252.5,173.5C 255.159,171.336 258.159,170.002 261.5,169.5C 261.66,171.199 261.494,172.866 261,174.5C 260.667,174.167 260.333,173.833 260,173.5C 257.75,174.708 255.583,176.041 253.5,177.5C 260.321,178.167 266.988,178.833 273.5,179.5 Z"/></g>
<g><path style="opacity:1" fill="#e3c873" d="M 106.5,178.5 C 111.878,189.255 117.211,199.922 122.5,210.5C 119.713,211.477 116.713,211.81 113.5,211.5C 114.226,207.657 112.892,204.99 109.5,203.5C 103.322,202.183 96.9883,202.183 90.5,203.5C 89.7827,205.828 88.7827,207.995 87.5,210C 87.5699,210.765 87.9033,211.265 88.5,211.5C 85.3601,212.641 82.0267,212.808 78.5,212C 79.8228,211.184 80.4894,210.017 80.5,208.5C 83.2895,204.584 85.2895,200.251 86.5,195.5C 90.574,189.349 93.574,182.683 95.5,175.5C 98.6248,174.521 101.958,174.187 105.5,174.5C 105.232,176.099 105.566,177.432 106.5,178.5 Z"/></g>
<g><path style="opacity:1" fill="#3b3135" d="M 104.5,194.5 C 105.404,195.209 105.737,196.209 105.5,197.5C 101.833,197.5 98.1667,197.5 94.5,197.5C 94.2627,196.209 94.596,195.209 95.5,194.5C 97.3428,193.754 98.6761,192.421 99.5,190.5C 101.186,191.857 102.852,193.19 104.5,194.5 Z"/></g>
<g><path style="opacity:1" fill="#443b2c" d="M 104.5,194.5 C 102.852,193.19 101.186,191.857 99.5,190.5C 98.6761,192.421 97.3428,193.754 95.5,194.5C 98.5442,182.549 101.544,182.549 104.5,194.5 Z"/></g>
<g><path style="opacity:1" fill="#3e3731" d="M 33.5,175.5 C 33.8333,175.5 34.1667,175.5 34.5,175.5C 34.6665,187.171 34.4999,198.838 34,210.5C 33.5,211 33,211.5 32.5,212C 44.8288,212.5 57.1622,212.667 69.5,212.5C 69.5,212.833 69.5,213.167 69.5,213.5C 56.4957,213.667 43.4957,213.5 30.5,213C 32.2036,210.763 33.2036,208.263 33.5,205.5C 27.1154,204.856 24.2821,207.856 25,214.5C 23.3002,210.233 24.1335,206.4 27.5,203C 29.3453,201.872 31.3453,201.372 33.5,201.5C 33.5,192.833 33.5,184.167 33.5,175.5 Z"/></g>
<g><path style="opacity:1" fill="#5a4b2a" d="M 109.5,203.5 C 109.5,203.833 109.5,204.167 109.5,204.5C 106.417,203.875 103.251,203.542 100,203.5C 96.7485,203.519 93.9151,204.186 91.5,205.5C 90.4706,207.517 89.4706,209.517 88.5,211.5C 87.9033,211.265 87.5699,210.765 87.5,210C 88.7827,207.995 89.7827,205.828 90.5,203.5C 96.9883,202.183 103.322,202.183 109.5,203.5 Z"/></g>
<g><path style="opacity:1" fill="#4f4230" d="M 43.5,175.5 C 43.8333,175.5 44.1667,175.5 44.5,175.5C 44.5,185.167 44.5,194.833 44.5,204.5C 52.8333,204.5 61.1667,204.5 69.5,204.5C 65.5549,205.825 61.2216,206.492 56.5,206.5C 51.9866,206.499 47.6533,206.166 43.5,205.5C 43.5,195.5 43.5,185.5 43.5,175.5 Z"/></g>
<g><path style="opacity:1" fill="#3f3328" d="M 151.5,199.5 C 152.451,200.919 152.784,202.585 152.5,204.5C 160.362,204.242 168.029,204.242 175.5,204.5C 175.167,204.5 174.833,204.5 174.5,204.5C 173.833,204.833 173.167,205.167 172.5,205.5C 165.833,205.5 159.167,205.5 152.5,205.5C 151.833,205.5 151.5,205.167 151.5,204.5C 151.5,202.833 151.5,201.167 151.5,199.5 Z"/></g>
<g><path style="opacity:1" fill="#e55f23" d="M 151.5,204.5 C 151.5,205.167 151.833,205.5 152.5,205.5C 152.784,207.415 152.451,209.081 151.5,210.5C 150.167,210.5 148.833,210.5 147.5,210.5C 147.5,207.5 147.5,204.5 147.5,201.5C 144.5,201.5 141.5,201.5 138.5,201.5C 138.747,204.939 138.414,208.272 137.5,211.5C 135.833,211.5 134.167,211.5 132.5,211.5C 132.5,209.5 132.5,207.5 132.5,205.5C 133.473,203.052 133.806,200.385 133.5,197.5C 133.833,197.5 134.167,197.5 134.5,197.5C 135.345,196.329 136.011,194.995 136.5,193.5C 137.482,192.859 138.482,192.193 139.5,191.5C 142.254,191.897 145.254,192.23 148.5,192.5C 148.411,195.709 148.744,198.875 149.5,202C 149.684,203.376 150.351,204.209 151.5,204.5 Z"/></g>
<g><path style="opacity:1" fill="#e0c66d" d="M 43.5,205.5 C 47.6533,206.166 51.9866,206.499 56.5,206.5C 61.2216,206.492 65.5549,205.825 69.5,204.5C 70.7647,205.514 71.4313,207.014 71.5,209C 71.4313,210.986 70.7647,212.486 69.5,213.5C 69.5,213.167 69.5,212.833 69.5,212.5C 61.6841,211.508 53.6841,211.174 45.5,211.5C 42.7131,210.523 39.7131,210.19 36.5,210.5C 36.5,198.833 36.5,187.167 36.5,175.5C 38.1667,175.5 39.8333,175.5 41.5,175.5C 41.3336,183.84 41.5003,192.173 42,200.5C 42.1981,202.382 42.6981,204.048 43.5,205.5 Z"/></g>
<g><path style="opacity:1" fill="#b74919" d="M 151.5,210.5 C 147.03,211.486 142.363,211.819 137.5,211.5C 138.414,208.272 138.747,204.939 138.5,201.5C 141.5,201.5 144.5,201.5 147.5,201.5C 147.5,204.5 147.5,207.5 147.5,210.5C 148.833,210.5 150.167,210.5 151.5,210.5 Z"/></g>
<g><path style="opacity:1" fill="#bfad7d" d="M 34.5,175.5 C 35.4951,187.322 35.8284,199.322 35.5,211.5C 38.8333,211.5 42.1667,211.5 45.5,211.5C 53.6841,211.174 61.6841,211.508 69.5,212.5C 57.1622,212.667 44.8288,212.5 32.5,212C 33,211.5 33.5,211 34,210.5C 34.4999,198.838 34.6665,187.171 34.5,175.5 Z"/></g>
<g><path style="opacity:1" fill="#35333d" d="M 238.5,173.5 C 236.833,173.5 235.167,173.5 233.5,173.5C 233.205,175.735 233.539,177.735 234.5,179.5C 235.168,181.463 235.502,183.463 235.5,185.5C 236.855,184.812 237.855,183.812 238.5,182.5C 239.473,180.052 239.806,177.385 239.5,174.5C 240.333,179.011 240.5,183.678 240,188.5C 240.667,189.833 241.333,189.833 242,188.5C 243.333,190.5 244.667,192.5 246,194.5C 247.867,192.09 247.867,189.756 246,187.5C 245.667,188.167 245.333,188.833 245,189.5C 244.358,187.238 243.525,185.071 242.5,183C 243.047,182.075 243.713,181.242 244.5,180.5C 245.981,182.519 247.314,184.519 248.5,186.5C 248.235,191.306 249.235,195.806 251.5,200C 249.229,203.075 248.063,206.575 248,210.5C 247.25,211.126 246.416,211.626 245.5,212C 250.156,212.665 254.823,213.165 259.5,213.5C 263.514,213.666 267.514,213.499 271.5,213C 273.645,211.711 275.978,210.878 278.5,210.5C 280.624,209.969 282.124,208.635 283,206.5C 283.987,202.525 283.487,198.859 281.5,195.5C 283.592,195.561 285.092,196.561 286,198.5C 286.324,196.431 287.158,196.098 288.5,197.5C 290.24,198.716 291.24,200.382 291.5,202.5C 290.775,204.949 289.775,207.283 288.5,209.5C 286.895,205.824 285.228,205.991 283.5,210C 282.922,211.811 282.422,213.645 282,215.5C 281.111,214.112 280.611,214.278 280.5,216C 282.023,218.452 283.69,220.786 285.5,223C 284.301,224.694 282.968,226.194 281.5,227.5C 281.082,226.778 280.416,226.278 279.5,226C 281.559,224.815 281.726,223.648 280,222.5C 277.46,223.207 276.293,224.873 276.5,227.5C 275.833,227.5 275.167,227.5 274.5,227.5C 273.909,226.849 273.243,226.182 272.5,225.5C 273.491,224.335 274.491,223.168 275.5,222C 274.65,220.714 273.483,220.881 272,222.5C 271.392,224.154 270.892,225.821 270.5,227.5C 269.833,227.5 269.167,227.5 268.5,227.5C 265.532,228.969 262.366,230.302 259,231.5C 258.259,230.359 257.425,230.359 256.5,231.5C 255.614,230.675 255.281,229.675 255.5,228.5C 257.665,228.884 259.332,228.217 260.5,226.5C 259.603,226.331 258.603,225.998 257.5,225.5C 259.965,223.94 260.632,221.94 259.5,219.5C 257.095,221.642 255.762,224.309 255.5,227.5C 253.801,227.473 252.467,226.806 251.5,225.5C 254.422,223.922 255.089,221.588 253.5,218.5C 250.146,216.887 247.146,217.22 244.5,219.5C 245.391,220.59 246.391,220.59 247.5,219.5C 248.298,219.957 248.631,220.624 248.5,221.5C 245.012,222.898 243.345,225.565 243.5,229.5C 239.813,231.19 239.146,230.69 241.5,228C 240.333,227.5 239.5,226.667 239,225.5C 237.887,226.305 236.721,226.972 235.5,227.5C 234.193,226.198 234.193,224.865 235.5,223.5C 233.167,221.998 231.501,222.498 230.5,225C 231.509,225.355 232.176,226.188 232.5,227.5C 231.5,227.5 230.5,227.5 229.5,227.5C 226.929,226.238 226.929,224.905 229.5,223.5C 228.132,222.406 226.965,222.74 226,224.5C 225.692,223.692 225.192,223.025 224.5,222.5C 222.914,224.173 222.247,226.173 222.5,228.5C 221.027,229.071 219.36,229.071 217.5,228.5C 214.557,229.367 211.557,230.367 208.5,231.5C 209.716,229.549 211.382,228.049 213.5,227C 212.692,226.692 212.025,226.192 211.5,225.5C 214.496,219.818 213.663,219.152 209,223.5C 208.536,222.906 208.369,222.239 208.5,221.5C 207.167,222.5 205.833,223.5 204.5,224.5C 203.222,223.251 202.222,221.751 201.5,220C 202.328,219.085 203.328,218.419 204.5,218C 203.953,217.075 203.287,216.242 202.5,215.5C 201.575,216.641 200.741,216.641 200,215.5C 199.167,217.167 198.333,218.833 197.5,220.5C 198.695,221.967 198.695,223.467 197.5,225C 197.95,226.285 198.617,227.452 199.5,228.5C 198.738,228.911 197.738,229.077 196.5,229C 197.654,229.914 197.487,230.747 196,231.5C 195.764,229.881 194.931,228.881 193.5,228.5C 193.5,227.833 193.833,227.5 194.5,227.5C 196.984,226.036 196.984,224.369 194.5,222.5C 193.893,222.624 193.56,222.957 193.5,223.5C 189.5,222.833 187.833,224.5 188.5,228.5C 188.38,229.586 187.713,230.253 186.5,230.5C 184.895,229.57 183.395,229.57 182,230.5C 181.005,229.934 180.172,229.267 179.5,228.5C 185.618,227.882 188.118,224.548 187,218.5C 182.25,217.981 179.083,220.148 177.5,225C 177.743,225.902 178.077,226.735 178.5,227.5C 177.009,227.901 175.342,228.068 173.5,228C 171.694,228.81 170.194,229.976 169,231.5C 166.511,230.394 164.011,229.394 161.5,228.5C 162.739,227.788 163.239,226.788 163,225.5C 161.951,226.517 160.784,226.684 159.5,226C 160.833,225 162.167,224 163.5,223C 159.535,222.475 157.869,224.309 158.5,228.5C 157.295,229.686 155.961,229.686 154.5,228.5C 153.957,226.657 154.624,224.99 156.5,223.5C 156.167,223.167 155.833,222.833 155.5,222.5C 153.885,223.154 152.218,223.654 150.5,224C 149.663,225.011 149.33,226.178 149.5,227.5C 148.833,227.5 148.167,227.5 147.5,227.5C 146.699,225.958 146.366,224.292 146.5,222.5C 141.77,222.303 140.103,224.303 141.5,228.5C 142.478,228.023 143.311,227.357 144,226.5C 144.417,227.756 145.25,228.423 146.5,228.5C 145.048,229.302 143.382,229.802 141.5,230C 141.833,230.333 142.167,230.667 142.5,231C 141.54,232.419 140.707,233.919 140,235.5C 139.727,233.899 139.227,232.399 138.5,231C 138.833,230.667 139.167,230.333 139.5,230C 138.552,229.517 137.552,229.351 136.5,229.5C 139.287,226.801 139.12,224.467 136,222.5C 134.739,222.759 133.739,223.426 133,224.5C 132.96,226.724 132.794,228.724 132.5,230.5C 131.778,229.449 130.778,228.782 129.5,228.5C 129.25,229.922 128.417,230.922 127,231.5C 124.789,231.377 122.622,231.377 120.5,231.5C 119.304,231.154 119.304,230.654 120.5,230C 119.255,229.209 117.922,228.709 116.5,228.5C 117.562,227.425 117.562,226.425 116.5,225.5C 114.368,227.117 112.035,227.617 109.5,227C 111.741,225.478 114.074,224.145 116.5,223C 114.744,222.798 113.078,222.298 111.5,221.5C 113.006,220.253 114.506,220.253 116,221.5C 117.706,220.692 118.539,219.359 118.5,217.5C 115.398,217.154 112.565,217.821 110,219.5C 109.289,221.367 109.789,222.867 111.5,224C 107.757,224.567 106.757,226.4 108.5,229.5C 109.609,230.29 110.942,230.79 112.5,231C 109.697,231.755 107.03,231.422 104.5,230C 104.973,226.249 105.139,222.416 105,218.5C 106.236,217.601 107.07,216.434 107.5,215C 105.825,213.498 104.159,211.998 102.5,210.5C 103.348,208.591 103.682,206.591 103.5,204.5C 101.712,204.215 100.045,204.548 98.5,205.5C 99.6122,209.259 98.2788,210.259 94.5,208.5C 95.2458,207.264 95.5792,205.93 95.5,204.5C 94.0413,204.433 92.7079,204.766 91.5,205.5C 93.9151,204.186 96.7485,203.519 100,203.5C 103.251,203.542 106.417,203.875 109.5,204.5C 110.449,207.872 110.449,211.205 109.5,214.5C 110,214.833 110.5,215.167 111,215.5C 115.461,214.753 119.961,214.253 124.5,214C 123.944,213.617 123.611,213.117 123.5,212.5C 124.167,212.5 124.5,212.167 124.5,211.5C 125.434,212.568 125.768,213.901 125.5,215.5C 124.448,215.351 123.448,215.517 122.5,216C 123.833,216.667 125.167,217.333 126.5,218C 125.483,219.049 125.316,220.216 126,221.5C 126.667,218.833 127.333,218.833 128,221.5C 128.249,220.376 128.749,219.376 129.5,218.5C 129.833,219.167 130.167,219.833 130.5,220.5C 130.833,219.833 131.167,219.167 131.5,218.5C 129.734,216.404 128.401,214.071 127.5,211.5C 127.975,208.787 129.308,206.787 131.5,205.5C 131.5,207.833 131.5,210.167 131.5,212.5C 139.167,212.5 146.833,212.5 154.5,212.5C 161.383,211.927 168.049,212.593 174.5,214.5C 175.48,211.914 175.813,209.247 175.5,206.5C 176.151,207.091 176.818,207.757 177.5,208.5C 177.462,205.387 177.962,202.387 179,199.5C 179.49,200.793 179.657,202.127 179.5,203.5C 181.322,203.831 182.989,204.498 184.5,205.5C 184.5,205.833 184.5,206.167 184.5,206.5C 183.833,208.5 183.167,210.5 182.5,212.5C 185.684,214.414 189.351,215.08 193.5,214.5C 192.306,207.191 195.306,204.191 202.5,205.5C 208.72,204.634 212.053,207.301 212.5,213.5C 217.129,214.481 221.796,214.648 226.5,214C 227.056,213.617 227.389,213.117 227.5,212.5C 225.592,209.688 223.925,206.688 222.5,203.5C 223.967,204.292 225.3,204.292 226.5,203.5C 225.966,201.386 224.966,199.552 223.5,198C 224.047,197.075 224.713,196.242 225.5,195.5C 226.684,197.046 227.684,198.713 228.5,200.5C 233.632,199.057 233.632,197.391 228.5,195.5C 227.167,191.5 227.167,187.5 228.5,183.5C 229.167,184.833 229.833,186.167 230.5,187.5C 231.248,185.668 232.248,184.001 233.5,182.5C 232.756,179.557 232.256,176.557 232,173.5C 228.667,172.167 228.667,170.833 232,169.5C 232.483,170.448 232.649,171.448 232.5,172.5C 234.735,172.205 236.735,172.539 238.5,173.5 Z"/></g>
<g><path style="opacity:1" fill="#42382f" d="M 109.5,204.5 C 111.824,206.625 112.491,209.125 111.5,212C 115.486,212.499 119.486,212.666 123.5,212.5C 123.611,213.117 123.944,213.617 124.5,214C 119.961,214.253 115.461,214.753 111,215.5C 110.5,215.167 110,214.833 109.5,214.5C 110.449,211.205 110.449,207.872 109.5,204.5 Z"/></g>
<g><path style="opacity:1" fill="#c6b88e" d="M 174.5,204.5 C 174.833,204.5 175.167,204.5 175.5,204.5C 175.5,205.167 175.5,205.833 175.5,206.5C 175.813,209.247 175.48,211.914 174.5,214.5C 168.049,212.593 161.383,211.927 154.5,212.5C 154.5,212.167 154.5,211.833 154.5,211.5C 161.167,211.5 167.833,211.5 174.5,211.5C 174.5,209.167 174.5,206.833 174.5,204.5 Z"/></g>
<g><path style="opacity:1" fill="#8f5f3f" d="M 131.5,205.5 C 131.833,205.5 132.167,205.5 132.5,205.5C 132.5,207.5 132.5,209.5 132.5,211.5C 134.167,211.5 135.833,211.5 137.5,211.5C 142.363,211.819 147.03,211.486 151.5,210.5C 152.451,209.081 152.784,207.415 152.5,205.5C 159.167,205.5 165.833,205.5 172.5,205.5C 166.321,206.167 159.988,206.833 153.5,207.5C 154.246,208.736 154.579,210.07 154.5,211.5C 154.5,211.833 154.5,212.167 154.5,212.5C 146.833,212.5 139.167,212.5 131.5,212.5C 131.5,210.167 131.5,207.833 131.5,205.5 Z"/></g>
<g><path style="opacity:1" fill="#ccb37f" d="M 109.5,204.5 C 109.5,204.167 109.5,203.833 109.5,203.5C 112.892,204.99 114.226,207.657 113.5,211.5C 116.713,211.81 119.713,211.477 122.5,210.5C 123.492,210.328 124.158,210.662 124.5,211.5C 124.5,212.167 124.167,212.5 123.5,212.5C 119.486,212.666 115.486,212.499 111.5,212C 112.491,209.125 111.824,206.625 109.5,204.5 Z"/></g>
<g><path style="opacity:1" fill="#ebd388" d="M 174.5,204.5 C 174.5,206.833 174.5,209.167 174.5,211.5C 167.833,211.5 161.167,211.5 154.5,211.5C 154.579,210.07 154.246,208.736 153.5,207.5C 159.988,206.833 166.321,206.167 172.5,205.5C 173.167,205.167 173.833,204.833 174.5,204.5 Z"/></g>
<g><path style="opacity:1" fill="#3b3433" d="M 212.5,203.5 C 212.833,204.5 213.5,205.167 214.5,205.5C 215.333,207.752 215.333,209.919 214.5,212C 218.821,212.499 223.154,212.666 227.5,212.5C 227.389,213.117 227.056,213.617 226.5,214C 221.796,214.648 217.129,214.481 212.5,213.5C 212.053,207.301 208.72,204.634 202.5,205.5C 195.306,204.191 192.306,207.191 193.5,214.5C 189.351,215.08 185.684,214.414 182.5,212.5C 185.85,212.665 189.183,212.498 192.5,212C 191.616,209.433 191.95,206.933 193.5,204.5C 199.744,203.542 206.077,203.209 212.5,203.5 Z"/></g>
<g><path style="opacity:1" fill="#5b5135" d="M 212.5,203.5 C 206.077,203.209 199.744,203.542 193.5,204.5C 196.258,203.182 199.424,202.515 203,202.5C 206.352,202.502 209.518,202.835 212.5,203.5 Z"/></g>
<g><path style="opacity:1" fill="#e2daa8" d="M 238.5,182.5 C 237.855,183.812 236.855,184.812 235.5,185.5C 235.502,183.463 235.168,181.463 234.5,179.5C 234.5,177.833 234.5,176.167 234.5,174.5C 235.833,174.5 237.167,174.5 238.5,174.5C 238.5,177.167 238.5,179.833 238.5,182.5 Z"/></g>
<g><path style="opacity:1" fill="#dddce2" d="M 208.5,221.5 C 208.631,220.761 208.464,220.094 208,219.5C 206.846,220.743 205.512,221.743 204,222.5C 203.833,222 203.667,221.5 203.5,221C 205.067,219.19 207.067,218.023 209.5,217.5C 210.809,219.24 210.476,220.573 208.5,221.5 Z"/></g>
<g><path style="opacity:1" fill="#d5d4db" d="M 65.5,221.5 C 62.1949,223.433 62.1949,225.767 65.5,228.5C 63.0289,228.767 61.3622,227.767 60.5,225.5C 61.8154,222.01 64.1487,219.843 67.5,219C 66.6195,219.708 65.9528,220.542 65.5,221.5 Z"/></g>
<g><path style="opacity:1" fill="#b6b5bc" d="M 255.5,228.5 C 255.5,228.167 255.5,227.833 255.5,227.5C 255.762,224.309 257.095,221.642 259.5,219.5C 260.632,221.94 259.965,223.94 257.5,225.5C 258.603,225.998 259.603,226.331 260.5,226.5C 259.332,228.217 257.665,228.884 255.5,228.5 Z"/></g>
<g><path style="opacity:1" fill="#c3c2cb" d="M 122.5,219.5 C 123.376,219.369 124.043,219.702 124.5,220.5C 123.747,222.753 122.414,224.587 120.5,226C 124.18,227.225 123.847,228.058 119.5,228.5C 119.129,224.997 120.129,221.997 122.5,219.5 Z"/></g>
<g><path style="opacity:1" fill="#c5c4cc" d="M 147.5,227.5 C 146.833,227.5 146.5,227.833 146.5,228.5C 145.25,228.423 144.417,227.756 144,226.5C 143.311,227.357 142.478,228.023 141.5,228.5C 140.103,224.303 141.77,222.303 146.5,222.5C 146.366,224.292 146.699,225.958 147.5,227.5 Z"/></g>
<g><path style="opacity:1" fill="#c1bfc6" d="M 154.5,228.5 C 152.717,227.825 151.05,227.492 149.5,227.5C 149.33,226.178 149.663,225.011 150.5,224C 152.218,223.654 153.885,223.154 155.5,222.5C 155.833,222.833 156.167,223.167 156.5,223.5C 154.624,224.99 153.957,226.657 154.5,228.5 Z"/></g>
<g><path style="opacity:1" fill="#c2c1c8" d="M 161.5,228.5 C 160.5,228.5 159.5,228.5 158.5,228.5C 157.869,224.309 159.535,222.475 163.5,223C 162.167,224 160.833,225 159.5,226C 160.784,226.684 161.951,226.517 163,225.5C 163.239,226.788 162.739,227.788 161.5,228.5 Z"/></g>
<g><path style="opacity:1" fill="#dfdee4" d="M 167.5,225.5 C 166.375,226.348 166.375,227.348 167.5,228.5C 165.16,227.428 164.827,225.761 166.5,223.5C 167.833,222.167 169.167,222.167 170.5,223.5C 169.643,224.425 168.643,225.092 167.5,225.5 Z"/></g>
<g><path style="opacity:1" fill="#c4c3c8" d="M 208.5,231.5 C 207.624,231.631 206.957,231.298 206.5,230.5C 207.167,229.5 207.833,228.5 208.5,227.5C 207.609,226.41 206.609,226.41 205.5,227.5C 204.614,226.675 204.281,225.675 204.5,224.5C 205.833,223.5 207.167,222.5 208.5,221.5C 208.369,222.239 208.536,222.906 209,223.5C 213.663,219.152 214.496,219.818 211.5,225.5C 212.025,226.192 212.692,226.692 213.5,227C 211.382,228.049 209.716,229.549 208.5,231.5 Z"/></g>
<g><path style="opacity:1" fill="#cecdd4" d="M 217.5,228.5 C 216.5,228.5 215.5,228.5 214.5,228.5C 214.019,224.651 215.686,222.651 219.5,222.5C 219.741,224.886 219.075,226.886 217.5,228.5 Z"/></g>
<g><path style="opacity:1" fill="#908e98" d="M 47.5,222.5 C 48.4728,223.791 49.4728,223.791 50.5,222.5C 50.9976,223.603 51.3309,224.603 51.5,225.5C 52.1835,225.137 52.8501,224.804 53.5,224.5C 53.5,225.5 53.5,226.5 53.5,227.5C 52.8333,227.167 52.1667,226.833 51.5,226.5C 50.2502,226.423 49.4169,225.756 49,224.5C 48.1627,226.007 46.9961,226.507 45.5,226C 46.8228,225.184 47.4894,224.017 47.5,222.5 Z"/></g>
<g><path style="opacity:1" fill="#c2c1c8" d="M 53.5,227.5 C 53.5,226.5 53.5,225.5 53.5,224.5C 54.6591,222.623 56.3258,222.123 58.5,223C 57.1667,224 55.8333,225 54.5,226C 55.5,226.333 56.5,226.667 57.5,227C 56.1821,228.63 54.8488,228.797 53.5,227.5 Z"/></g>
<g><path style="opacity:1" fill="#c7c6cc" d="M 70.5,227.5 C 69.6618,227.158 69.3284,226.492 69.5,225.5C 69.62,224.414 70.2867,223.747 71.5,223.5C 72.9856,222.691 74.3189,222.691 75.5,223.5C 74.0977,224.842 74.4311,225.676 76.5,226C 74.9116,228.479 72.9116,228.979 70.5,227.5 Z"/></g>
<g><path style="opacity:1" fill="#c4c3c7" d="M 90.5,223.5 C 90.9418,224.231 91.1085,225.231 91,226.5C 93.3547,223.87 93.8547,224.203 92.5,227.5C 90.5294,227.864 88.5294,228.197 86.5,228.5C 84.4161,223.682 85.7495,222.016 90.5,223.5 Z"/></g>
<g><path style="opacity:1" fill="#c2c1c8" d="M 96.5,228.5 C 96.5,227.5 96.5,226.5 96.5,225.5C 97.1642,223.513 98.3308,221.846 100,220.5C 100.63,222.903 99.7969,224.737 97.5,226C 100.051,227.516 99.7181,228.349 96.5,228.5 Z"/></g>
<g><path style="opacity:1" fill="#c5c4cb" d="M 116.5,228.5 C 113.873,229.092 111.206,229.425 108.5,229.5C 106.757,226.4 107.757,224.567 111.5,224C 109.789,222.867 109.289,221.367 110,219.5C 112.565,217.821 115.398,217.154 118.5,217.5C 118.539,219.359 117.706,220.692 116,221.5C 114.506,220.253 113.006,220.253 111.5,221.5C 113.078,222.298 114.744,222.798 116.5,223C 114.074,224.145 111.741,225.478 109.5,227C 112.035,227.617 114.368,227.117 116.5,225.5C 117.562,226.425 117.562,227.425 116.5,228.5 Z"/></g>
<g><path style="opacity:1" fill="#cecdd3" d="M 179.5,228.5 C 178.833,228.5 178.5,228.167 178.5,227.5C 178.077,226.735 177.743,225.902 177.5,225C 179.083,220.148 182.25,217.981 187,218.5C 188.118,224.548 185.618,227.882 179.5,228.5 Z"/></g>
<g><path style="opacity:1" fill="#414046" d="M 182.5,221.5 C 183.675,221.281 184.675,221.614 185.5,222.5C 184.431,225.703 182.431,226.703 179.5,225.5C 180.826,224.358 181.826,223.024 182.5,221.5 Z"/></g>
<g><path style="opacity:1" fill="#d9d8de" d="M 251.5,225.5 C 249.801,225.34 248.134,225.506 246.5,226C 245.837,227.518 244.837,228.685 243.5,229.5C 243.345,225.565 245.012,222.898 248.5,221.5C 248.631,220.624 248.298,219.957 247.5,219.5C 246.391,220.59 245.391,220.59 244.5,219.5C 247.146,217.22 250.146,216.887 253.5,218.5C 255.089,221.588 254.422,223.922 251.5,225.5 Z"/></g>
<g><path style="opacity:1" fill="#504f54" d="M 248.5,221.5 C 249.82,220.058 251.486,219.392 253.5,219.5C 253.915,221.948 252.915,223.281 250.5,223.5C 249.287,223.253 248.62,222.586 248.5,221.5 Z"/></g>
<g><path style="opacity:1" fill="#d1cfda" d="M 47.5,222.5 C 47.4894,224.017 46.8228,225.184 45.5,226C 46.9961,226.507 48.1627,226.007 49,224.5C 49.4169,225.756 50.2502,226.423 51.5,226.5C 51.3893,227.117 51.056,227.617 50.5,228C 48.6874,227.954 47.0207,228.12 45.5,228.5C 44.0114,225.789 44.6781,223.789 47.5,222.5 Z"/></g>
<g><path style="opacity:1" fill="#96969b" d="M 65.5,221.5 C 66.2341,222.708 66.5674,224.041 66.5,225.5C 67.5,225.5 68.5,225.5 69.5,225.5C 69.3284,226.492 69.6618,227.158 70.5,227.5C 69.4341,228.692 68.6008,228.359 68,226.5C 67.2917,227.381 66.4584,228.047 65.5,228.5C 62.1949,225.767 62.1949,223.433 65.5,221.5 Z"/></g>
<g><path style="opacity:1" fill="#848389" d="M 90.5,223.5 C 91.5676,222.566 92.901,222.232 94.5,222.5C 94.2852,224.179 94.9519,225.179 96.5,225.5C 96.5,226.5 96.5,227.5 96.5,228.5C 95.7784,228.082 95.2784,227.416 95,226.5C 94.3292,227.252 93.4959,227.586 92.5,227.5C 93.8547,224.203 93.3547,223.87 91,226.5C 91.1085,225.231 90.9418,224.231 90.5,223.5 Z"/></g>
<g><path style="opacity:1" fill="#c8c7cd" d="M 281.5,227.5 C 279.716,228.72 278.05,228.72 276.5,227.5C 276.293,224.873 277.46,223.207 280,222.5C 281.726,223.648 281.559,224.815 279.5,226C 280.416,226.278 281.082,226.778 281.5,227.5 Z"/></g>
<g><path style="opacity:1" fill="#c8c6cf" d="M 40.5,218.5 C 43.4867,218.422 44.1534,219.589 42.5,222C 41.9915,223.169 41.1581,224.002 40,224.5C 39.1072,223.289 38.2739,223.289 37.5,224.5C 38.8333,225.5 40.1667,226.5 41.5,227.5C 38.1667,228.833 34.8333,228.833 31.5,227.5C 34.7931,224.874 37.7931,221.874 40.5,218.5 Z"/></g>
<g><path style="opacity:1" fill="#bab9bf" d="M 79.5,222.5 C 80.5,222.5 81.5,222.5 82.5,222.5C 84.143,226.797 82.4763,228.797 77.5,228.5C 77.2525,226.142 77.9192,224.142 79.5,222.5 Z"/></g>
<g><path style="opacity:1" fill="#aeacb3" d="M 136.5,229.5 C 135.206,230.29 134.039,231.29 133,232.5C 132.536,231.906 132.369,231.239 132.5,230.5C 132.794,228.724 132.96,226.724 133,224.5C 133.739,223.426 134.739,222.759 136,222.5C 139.12,224.467 139.287,226.801 136.5,229.5 Z"/></g>
<g><path style="opacity:1" fill="#98979e" d="M 167.5,225.5 C 168.648,226.164 169.981,226.331 171.5,226C 170.529,227.481 169.196,228.315 167.5,228.5C 166.375,227.348 166.375,226.348 167.5,225.5 Z"/></g>
<g><path style="opacity:1" fill="#d5d4dc" d="M 193.5,223.5 C 193.437,224.66 193.77,225.994 194.5,227.5C 193.833,227.5 193.5,227.833 193.5,228.5C 191.766,227.438 190.099,227.438 188.5,228.5C 187.833,224.5 189.5,222.833 193.5,223.5 Z"/></g>
<g><path style="opacity:1" fill="#797880" d="M 193.5,223.5 C 193.56,222.957 193.893,222.624 194.5,222.5C 196.984,224.369 196.984,226.036 194.5,227.5C 193.77,225.994 193.437,224.66 193.5,223.5 Z"/></g>
<g><path style="opacity:1" fill="#c1c0c7" d="M 229.5,227.5 C 227.094,228.064 224.76,228.397 222.5,228.5C 222.247,226.173 222.914,224.173 224.5,222.5C 225.192,223.025 225.692,223.692 226,224.5C 226.965,222.74 228.132,222.406 229.5,223.5C 226.929,224.905 226.929,226.238 229.5,227.5 Z"/></g>
<g><path style="opacity:1" fill="#c0bfc8" d="M 235.5,227.5 C 234.348,228.625 233.348,228.625 232.5,227.5C 232.176,226.188 231.509,225.355 230.5,225C 231.501,222.498 233.167,221.998 235.5,223.5C 234.193,224.865 234.193,226.198 235.5,227.5 Z"/></g>
<g><path style="opacity:1" fill="#bab8c1" d="M 129.5,228.5 C 128.167,228.5 126.833,228.5 125.5,228.5C 125.062,224.266 126.728,222.599 130.5,223.5C 129.098,224.842 129.431,225.676 131.5,226C 130.619,226.708 129.953,227.542 129.5,228.5 Z"/></g>
<g><path style="opacity:1" fill="#b5b4bb" d="M 268.5,227.5 C 266.283,228.369 263.95,228.702 261.5,228.5C 261.39,225.048 263.057,223.048 266.5,222.5C 267.167,222.833 267.833,223.167 268.5,223.5C 267.193,224.865 267.193,226.198 268.5,227.5 Z"/></g>
<g><path style="opacity:1" fill="#d3d2d9" d="M 274.5,227.5 C 273.039,228.686 271.705,228.686 270.5,227.5C 270.892,225.821 271.392,224.154 272,222.5C 273.483,220.881 274.65,220.714 275.5,222C 274.491,223.168 273.491,224.335 272.5,225.5C 273.243,226.182 273.909,226.849 274.5,227.5 Z"/></g>
</svg>
